<?xml version="1.0" encoding="utf-8"?>
<!-- Generator: Adobe Illustrator 24.0.2, SVG Export Plug-In . SVG Version: 6.00 Build 0)  -->
<svg version="1.1" id="Camada_1" xmlns="http://www.w3.org/2000/svg" xmlns:xlink="http://www.w3.org/1999/xlink" x="0px" y="0px"
	 viewBox="0 0 231 79" style="enable-background:new 0 0 231 79;" xml:space="preserve">
<style type="text/css">
	.st0{fill:#42210B;}
</style>
<g>
	<path class="st0" d="M33.61,9.74v24.08h2.67c2.05,0,3.89-0.46,5.49-1.39c1.61-0.93,2.98-2.13,4.11-3.6
		c1.13-1.48,1.98-3.16,2.57-5.05c0.58-1.89,0.87-3.76,0.87-5.61c0-1.65-0.26-3.31-0.78-4.99c-0.52-1.68-1.43-3.23-2.74-4.63
		c-1.31-1.41-3.14-2.54-5.48-3.4c-2.34-0.86-5.31-1.29-8.89-1.29c-3.24,0-6.22,0.48-8.94,1.45c-2.72,0.97-5.08,2.36-7.08,4.19
		c-2,1.83-3.57,4.05-4.7,6.67c-1.14,2.62-1.71,5.58-1.71,8.89c0,2.41,0.14,4.36,0.41,5.84c0.27,1.48,0.6,2.64,0.98,3.46
		c0.38,0.83,0.76,1.43,1.14,1.81c0.38,0.38,0.67,0.67,0.88,0.88c-1.45,0-2.89-0.22-4.34-0.67c-1.45-0.45-2.76-1.15-3.93-2.12
		c-1.17-0.96-2.12-2.26-2.84-3.88c-0.72-1.62-1.09-3.57-1.09-5.84c0-3.24,0.83-6.32,2.48-9.25c1.65-2.93,3.93-5.51,6.82-7.75
		c2.89-2.24,6.27-4.03,10.13-5.37c3.86-1.34,7.96-2.02,12.3-2.02c4.13,0,7.84,0.41,11.11,1.24c3.27,0.82,6.05,1.99,8.32,3.5
		c2.27,1.51,4.01,3.31,5.22,5.41c1.2,2.1,1.81,4.38,1.81,6.85c0,1.44-0.21,2.92-0.62,4.43c-0.41,1.51-1.02,3.02-1.81,4.53
		c-0.79,1.51-1.77,2.92-2.95,4.22c-1.17,1.3-2.55,2.47-4.13,3.5c2.55,0.42,4.6,1.14,6.15,2.18c1.55,1.04,2.74,2.3,3.57,3.78
		c0.83,1.49,1.36,3.18,1.6,5.08c0.24,1.9,0.36,3.89,0.36,5.96c0,1.24-0.04,2.59-0.1,4.04c-0.07,1.45-0.12,2.88-0.16,4.3
		c-0.04,1.42-0.09,2.78-0.15,4.09c-0.07,1.31-0.1,2.49-0.1,3.52c0,3.11,0.57,5.56,1.71,7.36c1.14,1.79,2.53,2.97,4.19,3.52
		c-2.07,0.62-3.76,1.07-5.06,1.34c-1.31,0.27-2.58,0.41-3.82,0.41c-3.1,0-5.39-1-6.87-3c-1.48-2-2.22-4.55-2.22-7.65
		c0-1.31,0.05-2.79,0.16-4.44c0.1-1.65,0.24-3.32,0.41-5.01c0.17-1.69,0.31-3.34,0.41-4.96c0.1-1.62,0.15-3.08,0.15-4.39
		c0-2.34-0.26-4.32-0.77-5.94c-0.51-1.62-1.2-2.89-2.05-3.82s-1.88-1.6-3.08-2.02s-2.48-0.62-3.85-0.62c-0.75,0-1.69,0.07-2.82,0.21
		c-1.13,0.14-2.11,0.31-2.93,0.52v39.38H22.35V11.29L33.61,9.74z"/>
	<path class="st0" d="M68.86,11.08c0-1.86,0.65-3.48,1.96-4.86c1.31-1.38,2.93-2.07,4.86-2.07c1.86,0,3.48,0.69,4.86,2.07
		c1.38,1.38,2.07,3,2.07,4.86c0,1.93-0.69,3.55-2.07,4.86c-1.38,1.31-3,1.96-4.86,1.96c-1.93,0-3.55-0.65-4.86-1.96
		C69.51,14.63,68.86,13.01,68.86,11.08z M81.05,25.96V61.1c0,0.69,0.03,1.55,0.1,2.58c0.07,1.03,0.26,2.05,0.57,3.05
		c0.31,1,0.77,1.86,1.4,2.58c0.62,0.72,1.48,1.08,2.58,1.08c3.38,0,5.86-3.75,7.44-11.26h3.82c-0.76,4.34-1.72,7.77-2.89,10.28
		c-1.17,2.52-2.41,4.43-3.72,5.74c-1.31,1.31-2.65,2.15-4.03,2.53c-1.38,0.38-2.62,0.57-3.72,0.57c-2.41,0-4.38-0.46-5.89-1.4
		c-1.52-0.93-2.72-2.12-3.62-3.57c-0.9-1.45-1.52-3.06-1.86-4.86c-0.35-1.79-0.52-3.51-0.52-5.17V25.96H81.05z"/>
	<path class="st0" d="M116.5,41.79c0.55-0.48,0.98-1.25,1.29-2.31c0.31-1.06,0.47-2.07,0.47-3.02c0-1.57-0.5-2.87-1.5-3.9
		c-1-1.03-2.39-1.54-4.19-1.54c-1.86,0-3.41,0.69-4.65,2.06c-1.24,1.37-2.24,3.11-3,5.2c-0.76,2.1-1.29,4.43-1.6,7.01
		c-0.31,2.58-0.46,5.1-0.46,7.58c0,3.64,0.33,6.6,0.98,8.87c0.65,2.27,1.53,4.04,2.64,5.31c1.1,1.27,2.39,2.15,3.88,2.63
		c1.48,0.48,3.05,0.72,4.7,0.72c3.65,0,6.73-0.91,9.25-2.74c2.51-1.82,4.67-4.67,6.46-8.53h3.51c-0.83,2.55-2,4.98-3.51,7.29
		c-1.52,2.31-3.27,4.34-5.27,6.1c-2,1.76-4.17,3.15-6.51,4.19c-2.34,1.03-4.79,1.55-7.34,1.55c-2.41,0-4.79-0.41-7.13-1.24
		c-2.34-0.83-4.44-2.19-6.3-4.08c-1.86-1.89-3.38-4.38-4.55-7.44c-1.17-3.06-1.76-6.84-1.76-11.32c0-2.89,0.26-6.01,0.78-9.35
		c0.52-3.34,1.48-6.44,2.89-9.3c1.41-2.86,3.36-5.25,5.84-7.18c2.48-1.93,5.68-2.89,9.61-2.89c4.34,0,7.65,1.05,9.92,3.15
		c2.27,2.1,3.41,5.19,3.41,9.25c0,1.72-0.33,3.17-0.98,4.34c-0.66,1.17-1.67,1.76-3.05,1.76C118.81,43.95,117.53,43.23,116.5,41.79z
		"/>
	<path class="st0" d="M140.99,5.29v37.52l17.78-16.85h10.02l-17.26,13.95h1.03c3.1,0,5.56,0.52,7.39,1.55
		c1.83,1.03,3.24,2.36,4.24,3.98c1,1.62,1.65,3.38,1.96,5.27c0.31,1.9,0.46,3.67,0.46,5.32c0,1.45-0.05,3.08-0.16,4.91
		c-0.1,1.83-0.15,3.22-0.15,4.19c0,0.62,0.05,1.24,0.15,1.86c0.1,0.62,0.31,1.19,0.62,1.71c0.31,0.52,0.79,0.93,1.45,1.24
		c0.65,0.31,1.53,0.46,2.64,0.46c0.55,0,1.27-0.05,2.17-0.16c0.89-0.1,1.62-0.33,2.17-0.67c0,0.28,0.02,0.54,0.05,0.78
		c0.03,0.24,0.05,0.46,0.05,0.67c0,1.52-0.28,2.76-0.83,3.72c-0.55,0.97-1.24,1.71-2.07,2.22S171,77.83,170.03,78
		c-0.96,0.17-1.86,0.26-2.69,0.26c-2,0-3.72-0.31-5.17-0.93c-1.45-0.62-2.63-1.46-3.57-2.53c-0.93-1.07-1.62-2.31-2.07-3.72
		c-0.45-1.41-0.67-2.95-0.67-4.6c0-0.27,0-0.88,0-1.81c0-0.93,0.02-1.91,0.05-2.95c0.03-1.03,0.05-2.01,0.05-2.95s0-1.57,0-1.91
		c0-3.58-0.66-5.99-1.96-7.23c-1.31-1.24-2.83-1.86-4.55-1.86c-1.79,0-3.39,0.59-4.81,1.76c-1.41,1.17-2.64,3.24-3.67,6.2v21.91
		h-10.33V6.74L140.99,5.29z"/>
	<path class="st0" d="M179.13,6.43c0-0.89,0.21-1.72,0.62-2.48c0.41-0.76,0.95-1.4,1.6-1.91c0.65-0.52,1.38-0.93,2.17-1.24
		c0.79-0.31,1.57-0.47,2.33-0.47c2.62,0,4.5,0.79,5.63,2.38c1.14,1.59,1.71,3.55,1.71,5.89c0,1.65-0.26,3.39-0.78,5.22
		c-0.52,1.83-1.21,3.58-2.07,5.27c-0.86,1.69-1.86,3.2-3,4.55c-1.14,1.34-2.36,2.33-3.67,2.95c-0.62-0.34-1.02-0.74-1.19-1.19
		c-0.17-0.45-0.26-0.88-0.26-1.29c0-0.69,0.12-1.4,0.36-2.12c0.24-0.72,0.5-1.43,0.78-2.12c0.27-0.69,0.53-1.38,0.78-2.07
		c0.24-0.69,0.36-1.34,0.36-1.96c0-1.03-0.14-1.77-0.41-2.22c-0.28-0.45-0.6-0.79-0.98-1.03c-0.38-0.24-0.81-0.41-1.29-0.52
		c-0.48-0.1-0.91-0.34-1.29-0.72c-0.38-0.38-0.71-0.93-0.98-1.65C179.27,8.96,179.13,7.88,179.13,6.43z"/>
	<path class="st0" d="M222.02,22.76c1.65,6.61,3.03,12.01,4.13,16.17c1.1,4.17,1.98,7.68,2.63,10.54c0.65,2.86,1.12,5.39,1.4,7.6
		c0.27,2.21,0.41,4.65,0.41,7.34c0,2.55-0.55,4.7-1.65,6.46c-1.1,1.76-2.48,3.19-4.13,4.29c-1.65,1.1-3.41,1.9-5.27,2.38
		s-3.51,0.72-4.96,0.72c-3.03,0-5.53-0.48-7.49-1.45c-1.96-0.96-3.53-2.19-4.7-3.67c-1.17-1.48-2-3.13-2.48-4.96
		c-0.48-1.83-0.72-3.57-0.72-5.22c0-1.79,0.36-3.36,1.08-4.7s1.6-2.29,2.64-2.84c1.79-5.17,3.55-10.28,5.27-15.35
		c1.72-5.06,2.86-10.14,3.41-15.24L222.02,22.76z M219.64,63.27c0-2.13-0.12-4.03-0.36-5.68c-0.24-1.65-0.6-3.48-1.08-5.48
		c-0.48-2-1.09-4.43-1.81-7.29c-0.72-2.86-1.57-6.53-2.53-11.01c-0.41,3.86-1.26,7.54-2.53,11.06c-1.28,3.51-2.43,7.13-3.46,10.85
		c0.62,0.41,1.15,0.98,1.6,1.71c0.45,0.72,0.67,1.67,0.67,2.84c0,1.31-0.35,2.31-1.03,3c-0.69,0.69-1.45,1.03-2.27,1.03
		c-1.1,0-2.03-0.48-2.79-1.45c0.55,2.41,1.51,4.29,2.89,5.63c1.38,1.34,3.2,2.02,5.48,2.02c2.2,0,3.96-0.57,5.27-1.71
		C218.99,67.66,219.64,65.82,219.64,63.27z"/>
</g>
</svg>
